<?xml version="1.0" standalone="no"?>
<!DOCTYPE svg PUBLIC "-//W3C//DTD SVG 20010904//EN"
 "http://www.w3.org/TR/2001/REC-SVG-20010904/DTD/svg10.dtd">
<svg version="1.0" xmlns="http://www.w3.org/2000/svg"
 width="3598.000000pt" height="3598.000000pt" viewBox="0 0 3598.000000 3598.000000"
 preserveAspectRatio="xMidYMid meet">
<metadata>
Created by potrace 1.11, written by Peter Selinger 2001-2013
</metadata>
<g transform="translate(0.000000,3598.000000) scale(0.100000,-0.100000)"
fill="#000000" stroke="none">
<path d="M17983 35518 c-10 -12 -41 -75 -193 -393 -32 -66 -89 -186 -129 -267
-236 -489 -325 -673 -411 -853 -32 -66 -90 -187 -130 -270 -40 -82 -104 -215
-142 -295 -39 -80 -95 -197 -126 -260 -31 -63 -57 -117 -57 -120 -1 -3 -36
-76 -78 -163 -42 -86 -77 -162 -77 -167 0 -6 -4 -10 -10 -10 -5 0 -10 -5 -10
-11 0 -6 -23 -59 -51 -118 -101 -208 -315 -652 -531 -1101 -189 -393 -222
-460 -258 -530 -21 -41 -38 -77 -38 -80 0 -3 -41 -88 -90 -190 -49 -102 -118
-243 -152 -315 -34 -71 -96 -200 -137 -285 -42 -85 -101 -209 -133 -275 -32
-66 -87 -181 -123 -255 -35 -74 -95 -198 -132 -275 -37 -77 -91 -187 -119
-245 -29 -58 -53 -108 -54 -112 -2 -4 -40 -85 -86 -180 -46 -95 -112 -231
-146 -303 -35 -71 -98 -203 -141 -292 -49 -101 -76 -170 -74 -185 12 -71 35
-208 40 -242 3 -21 7 -48 10 -60 2 -12 7 -39 10 -61 7 -42 12 -76 20 -125 3
-16 7 -43 10 -60 3 -16 8 -45 11 -62 3 -18 7 -42 9 -53 2 -11 6 -38 9 -60 3
-22 8 -51 11 -65 2 -13 7 -40 10 -60 3 -20 7 -47 10 -60 3 -13 7 -40 10 -60 3
-20 8 -47 10 -60 3 -14 8 -45 11 -70 3 -25 7 -52 9 -60 2 -8 7 -35 10 -60 3
-25 8 -52 10 -60 2 -8 7 -33 10 -55 3 -23 8 -52 10 -65 3 -14 8 -41 11 -60 3
-19 9 -60 14 -90 12 -71 20 -118 26 -155 2 -16 6 -41 9 -55 3 -14 7 -41 10
-60 3 -19 7 -46 10 -60 5 -28 11 -65 20 -125 3 -23 7 -52 10 -65 3 -13 7 -40
10 -60 3 -20 8 -47 10 -60 7 -36 13 -70 20 -115 3 -23 7 -52 10 -65 3 -13 7
-42 10 -65 3 -22 8 -47 10 -55 2 -8 7 -33 10 -55 3 -23 8 -52 10 -65 3 -14 7
-38 10 -55 5 -39 16 -102 21 -129 2 -11 7 -41 10 -66 3 -25 8 -54 10 -65 3
-11 7 -36 10 -55 2 -19 7 -46 9 -60 3 -14 7 -41 10 -60 7 -41 13 -77 19 -105
2 -11 7 -40 10 -65 3 -25 8 -55 10 -66 2 -12 7 -39 10 -60 5 -32 27 -159 51
-305 3 -15 7 -44 10 -65 3 -22 7 -50 10 -64 3 -14 8 -41 11 -60 3 -19 7 -46
10 -60 2 -14 6 -41 9 -60 3 -19 7 -46 10 -60 2 -13 7 -40 10 -60 3 -20 8 -47
10 -60 3 -14 7 -41 10 -60 3 -19 7 -46 10 -60 2 -13 7 -40 10 -60 3 -20 8 -47
10 -60 3 -14 7 -38 9 -55 3 -16 7 -43 10 -60 3 -16 7 -48 11 -70 3 -23 8 -52
11 -65 2 -14 7 -41 9 -60 3 -19 7 -46 10 -60 3 -14 8 -42 11 -64 3 -21 8 -48
10 -60 19 -92 26 -161 16 -151 -5 6 -58 64 -117 130 -60 66 -125 138 -146 160
-20 22 -108 119 -195 215 -86 96 -176 195 -200 220 -23 25 -198 218 -390 430
-191 212 -350 387 -353 390 -3 3 -42 46 -86 95 -44 50 -84 95 -90 101 -5 6
-50 55 -100 110 -49 54 -101 110 -115 125 -14 14 -52 57 -85 95 -33 38 -67 76
-76 84 -9 8 -54 57 -100 109 -46 52 -91 102 -99 112 -8 9 -33 36 -56 60 -22
24 -134 148 -248 274 -115 127 -227 250 -250 275 -23 25 -77 85 -121 134 -44
49 -89 99 -100 111 -11 11 -60 65 -110 120 -49 54 -115 126 -145 160 -30 33
-84 93 -120 133 -174 194 -156 180 -261 203 -52 11 -102 23 -111 25 -10 2 -26
6 -35 8 -57 14 -121 28 -138 32 -11 2 -29 6 -40 8 -11 3 -63 14 -115 26 -52
12 -102 23 -110 25 -8 2 -67 15 -130 30 -63 15 -124 29 -135 31 -11 2 -33 7
-50 11 -16 4 -32 7 -35 8 -3 1 -18 4 -35 8 -16 4 -40 10 -52 12 -13 3 -31 7
-40 9 -67 16 -333 76 -353 80 -14 3 -34 7 -45 10 -11 2 -81 18 -156 35 -75 18
-146 34 -158 36 -11 3 -30 7 -42 10 -11 2 -28 6 -37 9 -9 3 -28 7 -42 10 -14
2 -47 10 -75 16 -27 6 -58 13 -68 15 -10 2 -26 6 -35 9 -9 3 -29 7 -45 10 -15
3 -35 7 -45 10 -9 3 -28 7 -42 10 -35 7 -70 14 -105 23 -16 4 -32 7 -35 8 -3
1 -18 4 -35 8 -16 4 -39 9 -50 11 -45 9 -212 48 -245 56 -19 5 -87 21 -150 34
-63 14 -185 41 -270 61 -85 20 -186 43 -225 51 -38 9 -79 18 -90 20 -11 3 -29
7 -40 9 -31 7 -63 15 -82 19 -55 13 -121 28 -138 32 -18 3 -71 15 -85 19 -3 1
-23 5 -45 9 -22 4 -53 12 -70 16 -16 5 -41 11 -55 14 -14 3 -34 7 -45 10 -11
2 -83 19 -160 36 -77 18 -158 36 -180 41 -22 4 -51 11 -65 14 -14 3 -36 8 -50
11 -14 3 -33 7 -42 10 -9 3 -25 7 -35 9 -10 2 -40 9 -68 15 -27 6 -59 14 -70
16 -11 2 -29 6 -40 8 -11 2 -38 9 -60 14 -22 6 -51 13 -65 16 -14 3 -45 10
-70 16 -25 5 -55 12 -68 14 -13 3 -31 7 -40 10 -9 3 -29 7 -45 10 -15 3 -35 7
-45 10 -9 3 -28 7 -42 10 -26 5 -114 25 -420 95 -96 22 -190 43 -209 46 -19 3
-37 8 -41 10 -3 2 -17 6 -31 9 -13 3 -35 8 -49 11 -14 3 -38 8 -55 11 -16 2
-48 10 -70 16 -22 5 -51 12 -64 14 -12 3 -53 12 -90 20 -36 9 -74 17 -84 20
-10 2 -26 5 -35 8 -9 3 -28 7 -42 10 -41 8 -71 15 -88 20 -9 3 -33 8 -52 11
-19 3 -48 10 -65 15 -16 5 -41 11 -55 14 -14 2 -59 12 -100 21 -41 9 -83 18
-93 20 -10 2 -26 6 -35 9 -9 3 -28 7 -42 10 -14 2 -56 12 -95 21 -38 9 -81 19
-95 21 -14 3 -50 11 -80 19 -30 8 -67 16 -82 19 -16 4 -40 8 -55 12 -16 3 -53
11 -83 19 -30 8 -67 16 -82 19 -29 6 -53 11 -98 21 -14 4 -36 8 -50 11 -14 3
-38 9 -55 14 -16 4 -48 12 -70 16 -22 4 -44 8 -50 10 -30 8 -244 56 -265 60
-14 3 -33 7 -42 10 -31 9 -68 15 -68 10 0 -4 78 -167 210 -441 137 -283 214
-444 279 -577 39 -82 103 -214 142 -295 39 -82 97 -202 129 -268 100 -208 279
-579 523 -1085 97 -201 174 -360 280 -580 126 -262 196 -408 287 -595 48 -99
88 -184 89 -190 1 -5 22 -48 46 -95 41 -80 102 -205 260 -535 130 -270 193
-401 270 -560 43 -88 106 -218 140 -290 34 -71 93 -193 130 -270 90 -186 194
-403 265 -550 54 -112 98 -204 280 -580 40 -82 101 -208 135 -280 148 -308
165 -343 177 -352 7 -6 44 -27 81 -47 37 -20 82 -45 100 -55 18 -10 66 -37
107 -60 41 -23 82 -46 90 -51 13 -8 140 -79 405 -225 28 -15 64 -35 80 -45 17
-10 57 -32 90 -50 68 -38 98 -55 205 -115 67 -38 185 -103 325 -181 63 -35
107 -59 170 -96 28 -16 70 -39 95 -51 25 -12 47 -25 50 -28 3 -3 41 -25 85
-49 101 -55 134 -73 215 -120 36 -20 94 -53 130 -72 111 -61 162 -89 265 -148
55 -31 132 -74 170 -94 39 -21 84 -46 100 -55 17 -10 55 -31 85 -48 30 -17 99
-56 154 -87 54 -31 100 -56 102 -56 3 0 21 -10 42 -23 20 -13 78 -45 127 -72
50 -26 106 -58 125 -70 19 -11 51 -29 70 -39 19 -9 49 -25 65 -35 29 -17 74
-43 173 -97 26 -15 81 -46 122 -69 84 -47 144 -80 240 -133 36 -20 123 -69
193 -109 71 -40 130 -73 132 -73 2 0 30 -16 62 -35 l58 -35 -55 -1 c-30 -1
-71 -2 -90 -4 -19 -1 -89 -5 -155 -10 -66 -4 -140 -8 -165 -10 -134 -9 -280
-18 -320 -20 -25 -1 -94 -6 -155 -10 -60 -4 -139 -8 -175 -10 -36 -2 -105 -6
-155 -10 -49 -3 -128 -8 -175 -10 -47 -3 -114 -7 -150 -10 -36 -2 -110 -7
-165 -10 -55 -3 -130 -8 -168 -10 -37 -3 -106 -7 -155 -10 -48 -3 -123 -7
-167 -10 -44 -3 -114 -7 -155 -10 -41 -3 -113 -7 -160 -10 -47 -3 -116 -8
-155 -10 -38 -2 -113 -7 -165 -10 -52 -3 -124 -8 -160 -10 -61 -3 -165 -10
-320 -20 -86 -6 -211 -13 -340 -20 -58 -4 -130 -8 -160 -10 -30 -3 -100 -7
-155 -10 -55 -3 -125 -8 -155 -10 -30 -2 -107 -7 -170 -10 -63 -3 -135 -8
-160 -10 -25 -2 -99 -7 -165 -11 -66 -4 -138 -8 -160 -9 -22 -2 -91 -6 -153
-9 -166 -10 -189 -13 -209 -30 -10 -9 -160 -128 -333 -266 -173 -138 -324
-258 -334 -267 -47 -38 -1260 -1007 -1291 -1031 -16 -12 -107 -85 -130 -104
-11 -9 -141 -114 -290 -233 -148 -118 -277 -221 -285 -228 -43 -34 -758 -606
-1610 -1287 -525 -420 -973 -778 -995 -795 -22 -18 -222 -178 -445 -356 -223
-178 -412 -329 -420 -336 -8 -7 -98 -79 -199 -160 l-185 -147 42 -13 c24 -6
55 -14 70 -17 55 -10 88 -17 142 -31 30 -8 109 -26 175 -40 122 -28 138 -31
177 -40 13 -3 36 -8 52 -11 16 -2 32 -7 36 -9 3 -2 17 -6 31 -8 42 -8 392 -87
449 -102 30 -8 69 -17 85 -20 17 -3 41 -8 55 -11 14 -3 33 -7 42 -10 10 -3 30
-7 45 -10 16 -3 36 -7 45 -10 21 -6 88 -22 166 -38 13 -3 31 -7 40 -10 9 -3
29 -8 45 -11 15 -3 39 -7 55 -10 15 -3 35 -8 44 -11 9 -3 26 -7 37 -9 12 -3
29 -7 38 -9 17 -4 147 -33 186 -41 10 -2 26 -6 35 -9 9 -3 28 -7 42 -10 41 -8
70 -15 88 -20 9 -3 28 -7 42 -10 14 -2 52 -11 85 -19 33 -8 78 -18 100 -23 22
-4 45 -8 50 -10 19 -5 142 -34 170 -40 37 -7 59 -12 130 -29 39 -9 81 -19 95
-21 14 -3 33 -7 42 -10 10 -3 30 -7 45 -10 16 -3 36 -7 45 -10 20 -6 56 -14
83 -19 29 -6 53 -11 120 -29 33 -8 76 -18 95 -21 19 -3 69 -15 110 -25 41 -10
91 -22 110 -25 19 -3 53 -11 75 -17 22 -5 51 -12 65 -15 26 -5 31 -6 70 -16
14 -4 36 -9 50 -11 31 -6 45 -9 152 -35 48 -11 98 -23 110 -25 47 -10 70 -15
86 -20 9 -3 31 -8 47 -11 51 -10 73 -15 163 -36 48 -12 98 -23 112 -25 14 -3
33 -7 42 -10 10 -3 30 -7 45 -10 16 -3 36 -7 45 -10 9 -3 26 -7 37 -9 12 -3
30 -7 42 -10 11 -2 28 -6 37 -9 9 -3 28 -7 42 -10 20 -3 241 -53 316 -71 31
-7 157 -36 179 -41 21 -4 31 -6 100 -23 22 -5 51 -12 65 -15 14 -3 34 -7 45
-10 45 -10 211 -48 228 -51 10 -2 26 -6 35 -9 9 -3 31 -8 47 -11 70 -14 81
-16 97 -21 10 -3 30 -7 45 -10 16 -3 42 -9 58 -14 17 -5 48 -12 69 -16 22 -3
50 -10 63 -15 13 -5 23 -7 23 -4 0 2 30 -5 67 -16 37 -10 69 -17 71 -14 2 2
15 0 28 -5 14 -6 36 -12 49 -15 29 -6 60 -13 92 -20 34 -7 64 -14 98 -21 17
-3 44 -10 60 -14 26 -8 122 -30 192 -45 46 -10 65 -14 81 -19 9 -3 33 -8 52
-11 19 -3 43 -8 52 -11 9 -3 26 -7 37 -9 12 -3 29 -7 38 -9 10 -3 52 -12 93
-21 41 -9 100 -22 130 -30 52 -13 69 -17 138 -30 15 -3 35 -8 44 -11 9 -3 25
-6 35 -8 10 -2 57 -13 105 -25 48 -11 99 -23 113 -25 14 -3 33 -7 43 -10 9 -3
28 -7 42 -10 14 -3 36 -8 50 -11 14 -3 43 -10 65 -15 22 -4 49 -11 60 -13 91
-23 175 -40 196 -39 9 0 75 24 145 53 118 47 462 188 509 208 11 5 54 23 95
40 413 169 409 167 422 170 4 1 34 13 65 28 58 25 106 45 110 44 2 0 27 11 56
24 30 13 161 67 293 120 131 53 253 103 269 110 17 8 53 23 80 34 28 11 68 27
90 37 22 10 45 19 50 20 8 2 135 54 235 96 14 6 30 12 35 14 11 3 292 118 345
142 19 8 40 16 45 18 12 3 124 49 175 71 19 9 40 17 45 19 9 2 153 60 220 88
34 15 112 48 170 72 22 10 42 18 45 19 3 1 14 5 25 10 44 18 194 79 260 105
39 16 87 35 107 44 21 9 39 15 40 14 2 -1 14 5 28 12 14 8 30 15 35 16 9 3
253 102 303 124 12 6 32 14 45 19 12 5 50 21 83 35 34 14 64 26 68 26 3 0 25
8 49 19 74 32 171 73 209 87 l38 13 -51 -72 c-88 -124 -431 -613 -499 -711
-68 -97 -225 -321 -272 -388 -16 -21 -28 -41 -28 -43 0 -3 -7 -13 -15 -22 -12
-15 -226 -318 -355 -503 -17 -25 -62 -89 -101 -143 -38 -53 -69 -102 -69 -107
0 -6 -4 -10 -8 -10 -4 0 -16 -15 -27 -32 -10 -18 -21 -35 -25 -38 -6 -6 -60
-82 -264 -375 -41 -60 -81 -116 -86 -123 -6 -7 -31 -42 -56 -77 -24 -36 -59
-87 -77 -113 -19 -26 -121 -171 -227 -322 -106 -151 -223 -318 -259 -370 -35
-52 -74 -107 -85 -121 -12 -15 -48 -66 -81 -115 -33 -48 -64 -92 -70 -99 -5
-6 -14 -18 -20 -27 -14 -23 -87 -129 -199 -287 l-95 -135 4 -4184 c2 -2302 6
-4186 8 -4188 2 -2 16 8 33 21 16 14 137 111 269 216 132 104 253 201 269 215
16 13 43 34 60 46 17 12 33 25 36 28 3 4 52 43 110 89 58 45 114 89 125 99 21
17 109 88 166 134 68 53 898 717 911 727 7 6 166 132 353 281 187 148 347 275
355 283 8 7 49 40 90 72 41 32 82 65 90 72 8 7 155 124 325 260 171 135 326
258 345 274 170 137 1425 1137 1709 1363 68 54 133 107 145 116 11 10 181 145
376 301 195 155 450 358 566 451 l210 168 19 62 c10 35 27 90 37 123 10 33 21
69 23 80 2 11 4 20 5 20 1 0 3 7 5 15 2 8 18 62 35 120 17 58 33 112 35 121 2
8 20 69 40 135 46 151 61 202 70 239 11 41 11 41 35 120 12 39 30 100 40 136
9 37 20 71 23 76 3 5 8 20 11 34 4 20 38 138 102 354 9 28 18 59 21 70 3 11
14 49 25 85 11 36 22 74 24 85 9 34 10 38 38 130 15 49 29 96 31 105 2 8 23
83 48 165 38 125 52 171 72 245 18 65 29 103 42 141 8 25 16 52 17 60 2 8 6
21 9 29 5 12 15 46 33 115 2 6 17 57 34 115 17 58 33 112 35 120 3 8 14 47 25
85 11 39 22 77 24 86 3 9 11 37 20 62 8 25 17 56 20 69 2 13 15 59 29 103 28
90 87 291 92 314 2 9 8 30 14 46 13 42 63 208 65 220 1 6 10 37 20 70 10 33
20 67 21 75 2 8 4 15 5 15 1 0 3 7 5 15 1 8 23 83 48 165 38 127 67 224 72
245 0 3 9 32 19 65 10 33 19 67 21 75 2 8 13 46 26 85 19 61 23 66 31 45 5
-13 10 -31 12 -39 1 -9 9 -36 16 -61 8 -25 14 -48 16 -52 1 -5 2 -9 4 -10 1
-2 3 -11 5 -21 3 -16 17 -63 76 -257 13 -41 24 -80 25 -87 1 -7 9 -34 17 -60
41 -132 168 -564 172 -587 3 -11 13 -47 24 -80 10 -34 21 -70 24 -81 3 -11 22
-74 42 -140 20 -66 38 -127 40 -135 2 -8 8 -28 15 -45 6 -16 11 -32 11 -35 -1
-8 20 -82 36 -130 8 -25 16 -52 18 -60 2 -8 11 -42 21 -75 10 -33 18 -62 19
-65 3 -12 28 -96 33 -110 2 -8 6 -22 8 -30 1 -8 24 -85 49 -170 26 -85 53
-176 61 -203 8 -26 21 -71 30 -100 8 -28 16 -56 18 -62 1 -5 8 -30 15 -55 7
-25 29 -97 48 -160 19 -63 36 -122 38 -130 5 -19 24 -85 64 -220 17 -58 33
-112 36 -120 2 -8 13 -46 25 -85 12 -38 23 -77 25 -86 2 -9 13 -47 25 -85 12
-38 23 -76 25 -84 5 -19 26 -90 65 -220 17 -58 33 -112 35 -120 2 -8 18 -62
35 -120 17 -58 38 -127 46 -155 8 -27 16 -57 19 -65 2 -8 11 -37 19 -65 8 -27
28 -97 46 -155 17 -58 32 -109 34 -115 1 -5 9 -30 16 -55 8 -25 14 -47 15 -50
0 -3 6 -26 14 -51 12 -44 24 -56 194 -190 305 -243 500 -398 537 -428 19 -16
107 -85 195 -155 88 -70 167 -132 175 -139 38 -30 166 -133 180 -144 14 -11
346 -275 418 -332 18 -14 39 -31 45 -36 7 -6 100 -80 207 -165 388 -309 655
-521 675 -538 18 -14 330 -263 830 -660 192 -152 250 -199 271 -219 7 -7 17
-13 22 -13 6 0 12 -3 14 -8 2 -4 17 -18 33 -30 17 -13 46 -36 65 -52 37 -30
777 -619 1326 -1056 622 -494 999 -795 1014 -807 62 -51 360 -287 362 -287 2
0 3 1884 3 4188 l0 4187 -75 109 c-41 59 -79 113 -85 119 -5 7 -30 41 -55 77
-24 36 -48 70 -53 75 -4 6 -41 57 -80 115 -40 58 -91 130 -112 160 -77 109
-220 312 -235 334 -61 89 -136 192 -142 194 -4 2 -8 8 -8 13 0 5 -31 53 -69
106 -106 149 -105 148 -217 308 -58 83 -111 158 -119 167 -7 9 -18 25 -24 36
-6 11 -17 26 -23 34 -7 7 -30 38 -50 68 -20 30 -59 87 -87 125 -27 39 -79 113
-115 165 -35 52 -72 104 -80 115 -29 37 -126 175 -126 180 0 3 -7 13 -15 22
-8 10 -68 95 -134 188 -66 94 -129 184 -141 200 -23 32 -186 264 -310 441 -41
59 -91 130 -111 158 -19 28 -57 83 -84 121 -27 39 -51 72 -54 75 -3 3 -28 38
-55 79 -27 40 -56 79 -63 86 -7 8 -13 16 -13 19 0 3 -44 67 -98 143 -54 76
-107 151 -118 168 -19 29 -19 29 1 21 11 -4 25 -9 30 -10 10 -3 21 -7 112 -47
24 -11 45 -19 47 -19 2 0 21 -8 42 -17 22 -9 41 -17 44 -18 3 -1 22 -9 44 -18
21 -9 41 -17 43 -17 3 0 21 -7 41 -16 21 -9 46 -20 57 -24 11 -4 41 -17 67
-29 26 -12 54 -21 61 -21 7 0 17 -4 23 -9 5 -4 61 -29 124 -54 63 -26 183 -74
265 -108 83 -33 209 -85 280 -114 72 -29 144 -58 160 -65 17 -7 39 -16 50 -20
11 -4 36 -15 55 -23 19 -8 105 -43 190 -77 85 -34 169 -68 185 -76 17 -7 115
-47 219 -89 104 -42 213 -87 243 -100 29 -13 54 -24 56 -24 2 1 35 -12 92 -37
30 -12 195 -79 565 -229 113 -46 282 -115 375 -153 94 -38 244 -100 335 -137
91 -37 188 -76 215 -87 28 -10 69 -28 92 -39 24 -10 46 -19 49 -19 3 0 20 -6
37 -14 18 -8 84 -35 147 -61 63 -25 127 -52 142 -61 15 -8 29 -14 30 -14 4 2
36 -10 132 -49 99 -40 110 -44 121 -45 8 -1 87 16 188 40 9 2 27 6 40 9 12 2
36 8 52 12 17 4 32 7 35 8 3 1 19 4 35 8 17 4 40 10 53 12 12 3 30 7 40 9 9 2
28 7 42 10 14 3 66 15 115 27 98 23 115 27 160 35 17 3 57 12 90 20 62 16 83
22 124 30 12 3 53 12 90 20 36 9 77 18 91 20 14 3 33 7 42 10 18 5 47 12 88
20 14 3 33 7 42 10 9 3 26 7 37 9 23 5 27 6 122 29 37 8 78 17 90 20 13 2 47
10 74 16 28 6 57 13 65 15 13 3 123 29 175 41 11 3 34 7 50 10 17 3 48 10 70
16 22 5 48 12 57 14 10 2 26 6 36 8 71 17 121 28 142 32 14 3 33 7 42 10 9 3
26 7 37 9 12 3 29 7 39 9 9 3 51 12 92 21 41 9 84 19 95 21 11 3 31 7 45 10
14 3 33 7 42 10 10 3 29 7 44 10 14 3 62 14 107 25 45 11 91 22 102 24 45 8
82 17 120 27 22 5 50 12 62 14 12 2 71 16 130 30 130 31 120 29 213 49 41 9
82 18 90 20 80 19 330 76 348 80 12 3 34 7 50 10 15 3 45 11 67 17 22 5 48 12
58 14 10 2 26 5 35 8 9 3 29 8 45 11 41 8 101 21 137 30 25 6 47 11 80 19 14
3 66 15 115 27 50 11 101 23 115 25 14 3 54 12 90 20 36 9 72 17 80 19 8 2 38
9 65 15 28 6 61 14 75 16 14 3 50 11 80 19 30 8 66 16 80 19 43 9 71 15 88 20
9 3 28 7 42 10 14 2 57 12 95 20 39 9 81 19 95 22 14 2 33 7 42 10 9 3 27 7
40 10 13 3 32 7 43 9 11 3 29 7 40 9 28 6 127 29 178 42 12 3 33 7 47 10 14 3
71 16 128 30 56 13 119 27 140 30 20 3 40 8 45 11 4 2 17 6 30 9 25 4 56 11
90 20 12 3 31 7 42 9 11 2 29 6 40 8 32 8 118 28 138 32 10 2 26 6 35 9 9 3
28 7 42 10 14 2 57 12 95 21 39 9 77 18 85 20 8 2 58 13 110 25 52 12 106 23
120 26 14 3 33 7 42 10 9 3 26 7 37 9 12 3 30 7 42 10 11 2 28 6 37 9 9 3 28
7 42 10 55 11 169 36 181 41 8 2 25 7 39 9 32 6 48 10 152 35 48 11 99 23 113
25 14 3 33 7 43 10 9 3 28 7 42 10 14 2 66 14 115 26 50 12 99 23 110 26 11 2
31 6 45 9 14 4 36 8 49 11 13 3 51 12 85 20 34 9 69 16 78 15 40 0 22 23 -89
113 -135 108 -1117 892 -1171 933 -20 16 -44 36 -54 45 -10 10 -22 18 -28 18
-5 0 -10 3 -10 8 0 4 -17 18 -37 32 -20 14 -43 31 -50 38 -7 8 -140 114 -296
238 -155 123 -292 233 -303 244 -12 11 -26 20 -32 20 -6 0 -12 4 -14 8 -1 5
-41 40 -88 77 -47 37 -87 71 -90 75 -3 3 -21 17 -40 30 -19 13 -48 37 -65 52
-16 15 -33 28 -37 28 -4 0 -13 6 -20 13 -7 8 -130 107 -273 221 -143 114 -269
214 -280 223 -21 18 -804 641 -940 749 -44 35 -86 69 -94 75 -15 14 -385 308
-636 507 -93 75 -177 142 -185 149 -12 11 -398 318 -765 609 -44 35 -87 70
-95 77 -8 7 -35 29 -60 48 -24 19 -56 44 -70 55 -19 16 -438 350 -560 447 -9
7 -36 28 -60 48 -68 54 -75 56 -215 64 -71 4 -150 8 -175 10 -25 2 -94 6 -155
10 -60 3 -135 8 -165 10 -30 2 -104 7 -165 10 -60 3 -144 8 -185 11 -41 2
-109 7 -150 9 -41 2 -109 7 -150 9 -79 6 -230 15 -340 21 -36 2 -105 6 -155 9
-96 7 -181 12 -340 21 -55 3 -127 8 -160 10 -33 3 -105 7 -160 10 -55 3 -134
7 -175 10 -41 3 -115 7 -165 10 -49 3 -119 7 -155 10 -36 2 -108 7 -160 10
-52 3 -135 8 -185 11 -49 3 -119 7 -155 9 -87 5 -251 15 -325 20 -33 2 -107 7
-165 10 -137 8 -212 13 -340 21 -58 3 -125 8 -150 9 -25 1 -97 6 -160 10 -63
4 -140 8 -170 10 -30 2 -107 6 -170 10 -63 4 -135 9 -160 10 -25 2 -54 3 -65
4 -13 1 5 15 49 41 37 22 69 40 71 40 1 0 47 25 101 56 55 31 124 70 154 87
30 16 71 39 90 50 19 11 53 30 75 42 63 34 137 76 170 95 17 10 53 30 80 45
28 15 88 49 135 75 47 26 108 60 135 75 28 15 55 31 60 35 6 4 51 29 100 55
50 27 93 53 97 59 4 6 8 7 8 3 0 -5 13 1 29 12 16 12 32 21 35 21 3 0 29 14
58 31 63 37 386 218 478 267 36 20 67 38 70 41 3 3 23 15 45 27 81 42 200 107
210 114 6 4 51 30 100 58 50 27 113 62 140 77 431 242 559 313 605 338 30 16
60 33 65 37 6 4 37 22 70 40 74 41 139 77 185 103 19 11 55 31 80 45 25 13 59
32 75 42 39 23 113 64 195 108 36 20 82 46 102 59 21 13 40 23 43 23 3 0 22
10 43 23 20 13 68 40 105 61 37 20 83 45 102 56 19 11 65 36 102 56 37 21 84
47 103 59 19 11 56 32 82 45 33 17 52 36 67 65 11 22 54 112 96 200 42 88 97
199 121 248 24 48 43 88 43 90 -1 1 40 87 90 190 51 104 113 234 140 290 27
56 84 174 126 262 138 286 175 365 175 375 0 6 5 10 10 10 6 0 10 6 10 14 0 7
18 48 40 90 22 42 38 76 35 76 -2 0 9 23 25 50 17 28 30 53 30 56 0 3 21 49
46 102 120 250 178 369 249 517 42 88 100 207 127 265 28 58 82 170 120 250
39 80 100 206 135 280 36 74 85 174 109 223 24 48 44 89 44 92 0 3 42 89 91
192 50 104 110 229 134 278 23 50 76 160 118 245 112 234 203 422 264 550 66
138 160 331 247 513 81 168 183 380 253 527 30 63 85 176 120 250 36 74 91
189 123 255 84 175 183 381 257 535 36 74 92 191 125 260 33 69 71 147 84 174
13 28 24 50 24 51 0 1 -79 -15 -145 -30 -45 -11 -71 -16 -95 -21 -14 -3 -43
-10 -65 -16 -22 -5 -51 -12 -65 -15 -14 -2 -43 -9 -65 -15 -22 -5 -49 -12 -60
-14 -11 -2 -31 -6 -45 -9 -14 -4 -35 -8 -48 -11 -12 -2 -62 -14 -110 -25 -48
-12 -98 -23 -112 -26 -14 -2 -50 -10 -80 -18 -30 -8 -89 -21 -130 -30 -41 -9
-84 -18 -95 -21 -11 -3 -31 -7 -45 -10 -14 -3 -33 -7 -42 -10 -10 -3 -30 -7
-45 -10 -16 -3 -46 -10 -68 -16 -22 -5 -49 -12 -60 -14 -29 -7 -106 -23 -134
-30 -12 -2 -53 -12 -90 -20 -98 -23 -99 -24 -123 -29 -13 -2 -36 -8 -53 -12
-16 -4 -32 -7 -35 -8 -3 -1 -18 -4 -35 -8 -16 -4 -39 -9 -50 -11 -11 -2 -51
-12 -90 -21 -38 -9 -79 -18 -90 -21 -11 -2 -30 -6 -42 -9 -13 -3 -33 -7 -45
-10 -13 -2 -35 -7 -50 -11 -15 -3 -31 -6 -35 -6 -5 0 -18 -4 -31 -9 -13 -5
-37 -11 -55 -14 -18 -4 -52 -11 -77 -16 -25 -6 -52 -12 -60 -14 -34 -8 -206
-47 -222 -51 -10 -2 -28 -6 -40 -10 -13 -3 -34 -7 -48 -10 -14 -2 -35 -6 -47
-9 -13 -3 -25 -6 -28 -6 -2 0 -19 -5 -37 -10 -18 -5 -46 -12 -63 -15 -16 -2
-38 -7 -47 -10 -9 -3 -27 -7 -40 -9 -13 -3 -59 -14 -103 -24 -44 -11 -91 -22
-105 -25 -39 -8 -72 -15 -105 -23 -16 -4 -32 -7 -35 -8 -3 -1 -18 -4 -35 -8
-35 -9 -70 -16 -105 -23 -14 -3 -33 -7 -42 -10 -16 -5 -40 -10 -87 -20 -12 -3
-53 -12 -90 -20 -94 -23 -103 -24 -131 -30 -14 -3 -33 -7 -42 -10 -9 -3 -27
-7 -40 -10 -13 -3 -32 -7 -43 -9 -11 -3 -29 -7 -40 -9 -23 -5 -78 -18 -180
-42 -38 -9 -81 -18 -95 -20 -14 -3 -33 -7 -42 -10 -16 -5 -30 -8 -80 -19 -13
-2 -35 -7 -50 -11 -15 -3 -31 -6 -35 -6 -5 0 -19 -4 -32 -9 -13 -5 -40 -12
-60 -15 -20 -3 -61 -12 -91 -20 -30 -8 -70 -17 -89 -20 -19 -3 -45 -10 -58
-15 -13 -5 -23 -7 -23 -4 0 2 -18 -2 -39 -10 -22 -7 -41 -11 -44 -9 -2 3 -16
0 -31 -6 -15 -5 -41 -12 -59 -15 -18 -3 -48 -10 -67 -15 -19 -5 -46 -11 -60
-14 -14 -3 -34 -7 -45 -10 -99 -23 -123 -28 -140 -32 -46 -9 -63 -13 -180 -40
-11 -3 -31 -7 -45 -10 -14 -3 -33 -7 -42 -10 -10 -3 -30 -7 -45 -10 -16 -3
-36 -7 -45 -10 -9 -3 -26 -7 -37 -9 -12 -3 -29 -7 -38 -9 -10 -2 -40 -10 -68
-16 -27 -6 -59 -14 -70 -16 -11 -3 -31 -7 -45 -10 -14 -3 -63 -14 -110 -25
-82 -20 -99 -24 -148 -33 -13 -3 -31 -7 -40 -10 -9 -3 -28 -7 -42 -10 -28 -6
-37 -7 -131 -30 -37 -8 -78 -17 -90 -20 -13 -3 -35 -8 -49 -11 -14 -3 -36 -8
-50 -11 -14 -3 -33 -7 -42 -10 -9 -3 -27 -7 -40 -9 -13 -3 -36 -8 -53 -12 -16
-4 -32 -7 -35 -8 -3 -1 -18 -4 -35 -8 -16 -4 -39 -9 -50 -11 -11 -2 -59 -13
-107 -25 -48 -11 -98 -23 -110 -25 -25 -5 -117 -26 -180 -42 -13 -3 -32 -7
-43 -9 -17 -3 -130 -29 -175 -40 -8 -2 -58 -13 -110 -25 -52 -12 -124 -28
-160 -36 -36 -8 -76 -17 -90 -20 -14 -3 -50 -11 -80 -19 -30 -8 -66 -16 -80
-19 -57 -10 -124 -27 -135 -34 -7 -4 -101 -106 -210 -227 -109 -121 -213 -236
-231 -255 -17 -19 -100 -111 -184 -205 -84 -93 -162 -180 -174 -191 -11 -12
-48 -52 -81 -90 -63 -71 -265 -295 -274 -304 -3 -3 -42 -45 -86 -95 -44 -49
-98 -110 -121 -135 -22 -25 -108 -119 -190 -210 -81 -91 -151 -167 -154 -170
-3 -3 -35 -38 -70 -79 -36 -41 -74 -84 -85 -95 -26 -28 -176 -194 -249 -276
-32 -36 -73 -81 -90 -100 -18 -19 -59 -65 -92 -101 -32 -36 -96 -105 -140
-155 -100 -109 -648 -718 -684 -758 -14 -16 -30 -34 -36 -40 -5 -6 -57 -63
-114 -126 -57 -63 -116 -128 -131 -145 -16 -16 -38 -41 -50 -55 l-21 -25 6 45
c3 25 8 56 11 70 3 14 8 45 11 70 3 25 8 54 10 65 3 11 7 34 9 50 3 17 7 41
10 55 3 14 7 41 10 60 3 19 7 46 10 59 2 14 7 47 10 74 3 28 8 53 9 56 2 3 7
29 10 56 4 28 9 57 11 65 2 8 6 32 9 53 9 56 17 107 22 131 2 11 7 41 10 66 3
25 8 54 10 65 3 11 7 36 10 55 3 19 7 42 9 50 2 8 7 38 11 65 3 28 8 59 10 70
8 41 13 71 18 110 3 22 8 51 11 65 2 13 7 42 10 65 3 22 8 54 12 70 3 17 7 39
9 50 1 11 5 35 8 53 11 58 17 97 22 125 2 15 6 39 8 55 3 15 7 43 10 62 3 19
8 46 11 60 2 13 7 40 10 60 3 20 8 47 10 60 3 14 7 42 10 64 5 39 8 57 25 156
5 30 12 69 14 85 5 29 10 57 21 123 12 71 15 93 20 125 3 17 7 43 10 57 3 14
7 41 10 60 3 19 8 47 10 61 3 14 7 41 9 60 3 19 7 43 9 54 3 11 8 40 12 65 4
25 9 52 10 60 2 8 6 35 9 60 3 25 8 55 10 66 5 27 16 90 21 129 3 17 7 41 10
55 2 13 7 40 10 60 3 20 8 47 10 60 3 14 8 43 11 65 3 22 7 49 9 60 2 11 6 36
9 55 3 19 8 46 11 60 3 14 7 43 10 65 3 22 7 51 10 65 3 14 8 41 11 60 3 19 7
46 9 60 3 14 7 43 10 65 4 22 8 47 10 55 2 8 7 35 10 60 3 25 8 52 10 60 2 8
7 33 10 55 3 23 7 52 10 65 3 13 7 42 10 65 6 42 12 77 19 110 2 11 7 40 11
65 9 63 14 92 19 115 6 30 16 96 21 135 3 19 7 46 10 60 3 14 7 41 10 60 6 47
15 92 21 111 2 9 -13 51 -35 95 -21 43 -59 122 -84 174 -25 52 -88 184 -141
293 -52 108 -96 199 -96 202 0 3 -20 44 -45 92 -24 49 -76 156 -116 238 -39
83 -102 213 -139 290 -37 77 -98 203 -135 280 -37 77 -97 201 -132 275 -36 74
-94 194 -128 265 -35 72 -97 202 -140 290 -43 88 -106 220 -141 293 -109 226
-189 391 -269 557 -42 88 -104 216 -137 285 -33 69 -92 190 -130 270 -91 188
-196 404 -268 555 -32 66 -99 206 -151 310 -51 105 -93 192 -93 195 -1 3 -18
39 -38 80 -20 41 -70 145 -111 230 -41 85 -104 216 -139 290 -88 181 -191 395
-273 565 -37 77 -101 209 -141 293 -41 84 -74 157 -74 162 0 6 -4 10 -10 10
-5 0 -10 5 -10 12 0 7 -24 62 -54 123 -30 60 -76 157 -104 215 -27 58 -97 202
-154 320 -57 118 -113 234 -124 258 -16 34 -23 41 -31 30z"/>
</g>
</svg>
